<?xml version="1.0" encoding="UTF-8"?>
<svg width="80px" height="80px" viewBox="0 0 80 80" version="1.1" xmlns="http://www.w3.org/2000/svg" xmlns:xlink="http://www.w3.org/1999/xlink">
    <!-- Generator: Sketch 52.5 (67469) - http://www.bohemiancoding.com/sketch -->
    <title>Logo / Icon-home</title>
    <desc>Created with Sketch.</desc>
    <g id="Logo-/-Icon-home" stroke="none" stroke-width="1" fill="none" fill-rule="evenodd">
        <path d="M39.9263686,30.43 L54.1401348,42.1982609 C54.1560656,42.2306957 54.1650699,42.2806087 54.1650699,42.3466957 L54.1650699,54.2633043 C54.1650699,54.6936522 54.0079271,55.0667826 53.6947669,55.3804348 C53.3821262,55.6953043 53.0108708,55.8530435 52.5824725,55.8530435 L43.0907842,55.8530435 L43.0907842,46.3191304 L36.7620396,46.3191304 L36.7620396,55.8526957 L27.2702647,55.8526957 C26.8417799,55.8526957 26.4710439,55.6946087 26.1579703,55.3804348 C25.8448102,55.0664348 25.6881868,54.6935652 25.6881868,54.2633043 L25.6881868,42.3466957 C25.6881868,42.3296522 25.6925158,42.3056522 25.7006543,42.2726087 C25.708966,42.2393043 25.7131219,42.2148696 25.7131219,42.1982609 L39.9263686,30.43 Z M59.5777106,39.5168696 C59.7421262,39.6493043 59.8327755,39.8272174 59.8496587,40.050087 C59.8668015,40.2736522 59.8090526,40.4683478 59.6772777,40.634087 L58.1445504,42.4710435 C58.0118232,42.6195652 57.8393556,42.7112174 57.6254162,42.743913 L57.5511305,42.743913 C57.3368448,42.743913 57.1641175,42.6862609 57.0319963,42.5707826 L39.9263686,28.2454783 L22.8209141,42.5708696 C22.6230786,42.7032174 22.4252431,42.7613043 22.2274076,42.7446087 C22.0131219,42.7113043 21.840308,42.6202609 21.7082734,42.4713913 L20.1757193,40.6341739 C20.0436846,40.4687826 19.9861089,40.2737391 20.0028188,40.0504348 C20.0196154,39.8269565 20.1099184,39.6490435 20.2746803,39.5168696 L38.0482734,24.6454783 C38.5755461,24.2151304 39.2017799,24 39.9268881,24 C40.6520829,24 41.2784032,24.2151304 41.8051565,24.6454783 L47.8364985,29.7102609 L47.8364985,24.8691304 C47.8364985,24.6376522 47.9105245,24.4471304 48.058663,24.298087 C48.2071478,24.1492174 48.3966716,24.0747826 48.6274942,24.0747826 L53.3734682,24.0747826 C53.6045504,24.0747826 53.7941608,24.1492174 53.9416933,24.298087 C54.0904379,24.4471304 54.1645504,24.6375652 54.1645504,24.8691304 L54.1645504,34.9984348 L59.5777106,39.5168696 Z" id="home" fill="#FFFFFF"></path>
    </g>
</svg>