<?xml version="1.0" encoding="iso-8859-1"?>
<!-- Generator: Adobe Illustrator 19.0.0, SVG Export Plug-In . SVG Version: 6.00 Build 0)  -->
<svg version="1.1" id="Capa_1" xmlns="http://www.w3.org/2000/svg" xmlns:xlink="http://www.w3.org/1999/xlink" x="0px" y="0px"
	 viewBox="0 0 512 512" style="enable-background:new 0 0 512 512;" xml:space="preserve">
<g>
	<g>
		<path d="M445.825,66.668C403.15,23.995,346.413,0.493,286.063,0.493h-15.002v240.939H512V226.43
			C512,166.079,488.498,109.342,445.825,66.668z M325.642,112.732c0-8.284,6.716-15,15-15c8.284,0,15,6.716,15,15s-6.716,15-15,15
			C332.358,127.732,325.642,121.016,325.642,112.732z M330.37,169.029l63.722-74.74l22.832,19.465l-63.722,74.74L330.37,169.029z
			 M406.651,188.405c-8.284,0-15-6.716-15-15s6.716-15,15-15c8.284,0,15,6.716,15,15S414.936,188.405,406.651,188.405z"/>
	</g>
</g>
<g>
	<g>
		<path d="M225.937,59.634c-60.35,0-117.088,23.501-159.761,66.175C23.502,168.482,0,225.221,0,285.57
			s23.502,117.088,66.175,159.761c0.467,0.467,0.944,0.918,1.414,1.38l173.349-196.255V59.634H225.937z"/>
	</g>
</g>
<g>
	<g>
		<path d="M263.207,270.568L90.312,466.309c38.909,29.324,86.044,45.198,135.624,45.198c60.35,0,117.087-23.502,159.761-66.175
			s66.175-99.412,66.175-159.761v-15.002H263.207z"/>
	</g>
</g>
<g>
</g>
<g>
</g>
<g>
</g>
<g>
</g>
<g>
</g>
<g>
</g>
<g>
</g>
<g>
</g>
<g>
</g>
<g>
</g>
<g>
</g>
<g>
</g>
<g>
</g>
<g>
</g>
<g>
</g>
</svg>
