<?xml version="1.0" encoding="UTF-8"?>
<svg width="80px" height="80px" viewBox="0 0 80 80" version="1.1" xmlns="http://www.w3.org/2000/svg" xmlns:xlink="http://www.w3.org/1999/xlink">
    <!-- Generator: Sketch 52.2 (67145) - http://www.bohemiancoding.com/sketch -->
    <title>Icons / Products / accounts</title>
    <desc>Created with Sketch.</desc>
    <g id="Symbols" stroke="none" stroke-width="1" fill="none" fill-rule="evenodd">
        <g id="Icons-/-Products-/-feature-salary" fill="#000000" fill-rule="nonzero">
            <g transform="translate(5.000000, 5.000000)" id="Shape">
                <path d="M42.4817195,58.0270083 C42.4817195,64.5011724 32.9862788,69.7421624 21.2587929,69.7421624 C9.54363873,69.7421624 0.0358662614,64.5011724 0.0358662614,58.0270083 C0.0358662614,58.0270083 0.0358662614,55.8689535 0.0358662614,53.414937 C0.0851932262,59.8644377 9.56830221,65.0807642 21.2464611,65.0807642 C32.973947,65.0807642 42.4693878,59.8397742 42.4693878,53.3656101 L42.4693878,58.0270083 L42.4817195,58.0270083 Z M42.4817195,49.8880591 C42.4817195,56.3622232 32.9862788,61.6032132 21.2587929,61.6032132 C9.54363873,61.6032132 0.0358662614,56.3622232 0.0358662614,49.8880591 C0.0358662614,49.8880591 0.0358662614,47.7300043 0.0358662614,45.2759878 C0.0851932262,51.7254885 9.56830221,56.941815 21.2464611,56.941815 C32.973947,56.941815 42.4693878,51.700825 42.4693878,45.2266609 L42.4693878,49.8880591 L42.4817195,49.8880591 Z M21.2587929,53.4519323 C9.54363873,53.4519323 0.0358662614,48.2109422 0.0358662614,41.7367781 C0.0358662614,35.262614 9.53130699,30.021624 21.2587929,30.021624 C32.9862788,30.021624 42.4817195,35.262614 42.4817195,41.7367781 C42.4817195,48.2109422 32.9862788,53.4519323 21.2587929,53.4519323 Z M69.6362136,44.4497612 C69.6362136,50.9239253 60.1407729,56.1649153 48.413287,56.1649153 C47.7843682,56.1649153 47.1554494,56.1402518 46.5511941,56.1155884 L46.5511941,53.3656101 C46.5511941,52.9093356 46.4772036,52.465393 46.3415545,52.0584455 C46.3785497,51.8611376 46.3785497,51.651498 46.4032132,51.4418584 C47.0691272,51.4788537 47.747373,51.5035172 48.4256188,51.5035172 C60.1531046,51.5035172 69.6485454,46.2625271 69.6485454,39.788363 L69.6362136,44.4497612 Z M69.6362136,36.2984802 C69.6362136,42.7726444 60.1407729,48.0136344 48.413287,48.0136344 C47.7843682,48.0136344 47.1554494,47.9889709 46.5511941,47.9643074 L46.5511941,45.2143291 C46.5511941,44.7580547 46.4772036,44.314112 46.3415545,43.9071646 C46.3785497,43.7098567 46.3785497,43.5002171 46.4032132,43.2905775 C47.0691272,43.3275727 47.747373,43.3522362 48.4256188,43.3522362 C60.1531046,43.3522362 69.6485454,38.1112462 69.6485454,31.6370821 L69.6362136,36.2984802 Z M69.6362136,28.159531 C69.6362136,34.6336952 60.1407729,39.8746852 48.413287,39.8746852 C47.7227095,39.8746852 47.0444637,39.8500217 46.366218,39.8130265 C46.0579244,38.0865827 45.3303517,36.4587929 44.2574902,34.9789839 C45.60165,35.1269648 46.9951368,35.2009553 48.4256188,35.2009553 C60.1531046,35.2009553 69.6485454,29.9599653 69.6485454,23.4858011 L69.6485454,28.159531 L69.6362136,28.159531 Z M69.6362136,20.0082501 C69.6362136,26.4824142 60.1407729,31.7234043 48.413287,31.7234043 C45.2563613,31.7234043 42.2597482,31.3287885 39.5590968,30.6505428 C37.3887104,29.2447243 34.7743812,28.1225358 31.8394268,27.3209726 C28.9414677,25.3108988 27.1903604,22.7828919 27.1903604,20.0205818 C27.1903604,20.0205818 27.1903604,17.8625271 27.1903604,15.4085106 C27.2396874,21.8580113 36.7227964,27.0743378 48.4009553,27.0743378 C60.1284412,27.0743378 69.6238819,21.8333478 69.6238819,15.3591837 L69.6238819,20.0082501 L69.6362136,20.0082501 Z M48.4256188,23.5721233 C36.7104646,23.5721233 27.2026921,18.3311333 27.2026921,11.8569692 C27.2026921,5.38280504 36.6981329,0.141815024 48.4256188,0.141815024 C60.1531046,0.141815024 69.6485454,5.38280504 69.6485454,11.8569692 C69.6362136,18.3311333 60.1407729,23.5721233 48.4256188,23.5721233 Z"></path>
            </g>
        </g>
    </g>
</svg>