<svg xmlns="http://www.w3.org/2000/svg" viewBox="0 0 1600 600" width="1600" height="600" font-family="'Departure Mono', monospace">
  <rect width="1600" height="600" fill="#f4f3ec"/>

  <!-- window bar -->
  <rect x="0" y="0" width="1600" height="48" fill="#111827"/>
  <circle cx="30" cy="24" r="5" fill="#f4f3ec"/>
  <circle cx="50" cy="24" r="5" fill="#8b8f98"/>
  <circle cx="70" cy="24" r="5" fill="#8b8f98"/>
  <text x="120" y="30" fill="#f4f3ec" font-size="15" letter-spacing="3">INSTALLR — SCRIPTS MARKETPLACE</text>

  <!-- search bar -->
  <rect x="140" y="92" width="1320" height="64" fill="#ffffff" stroke="#111827" stroke-width="2"/>
  <circle cx="188" cy="124" r="13" fill="none" stroke="#111827" stroke-width="3"/>
  <line x1="197" y1="133" x2="210" y2="146" stroke="#111827" stroke-width="3" stroke-linecap="round"/>
  <text x="236" y="131" fill="#111827" font-size="22">postgres</text>
  <rect x="368" y="110" width="2" height="28" fill="#111827"/>
  <text x="1330" y="130" fill="#8b8f98" font-size="16" letter-spacing="2">12 RESULTS</text>

  <!-- result rows -->
  <g>
    <!-- row 1 -->
    <rect x="140" y="196" width="1320" height="76" fill="#ffffff" stroke="#111827" stroke-opacity="0.28" stroke-width="2"/>
    <text x="172" y="232" fill="#111827" font-size="21">postgres-bootstrap.sh</text>
    <text x="172" y="258" fill="#8b8f98" font-size="15">shell · verified · 2.3k installs</text>
    <rect x="1156" y="212" width="120" height="44" fill="#111827"/>
    <text x="1216" y="240" fill="#ffffff" font-size="15" text-anchor="middle" letter-spacing="1">INSTALL</text>
    <rect x="1296" y="212" width="130" height="44" fill="none" stroke="#111827" stroke-width="2"/>
    <text x="1361" y="240" fill="#111827" font-size="14" text-anchor="middle" letter-spacing="1">DOWNLOAD</text>

    <!-- row 2 -->
    <rect x="140" y="292" width="1320" height="76" fill="#ffffff" stroke="#111827" stroke-opacity="0.28" stroke-width="2"/>
    <text x="172" y="328" fill="#111827" font-size="21">pg-docker-init.sh</text>
    <text x="172" y="354" fill="#8b8f98" font-size="15">docker · verified · 1.1k installs</text>
    <rect x="1156" y="308" width="120" height="44" fill="#111827"/>
    <text x="1216" y="336" fill="#ffffff" font-size="15" text-anchor="middle" letter-spacing="1">INSTALL</text>
    <rect x="1296" y="308" width="130" height="44" fill="none" stroke="#111827" stroke-width="2"/>
    <text x="1361" y="336" fill="#111827" font-size="14" text-anchor="middle" letter-spacing="1">DOWNLOAD</text>

    <!-- row 3 -->
    <rect x="140" y="388" width="1320" height="76" fill="#ffffff" stroke="#111827" stroke-opacity="0.28" stroke-width="2"/>
    <text x="172" y="424" fill="#111827" font-size="21">pgvector-setup.sh</text>
    <text x="172" y="450" fill="#8b8f98" font-size="15">shell · community · 640 installs</text>
    <rect x="1156" y="404" width="120" height="44" fill="#111827"/>
    <text x="1216" y="432" fill="#ffffff" font-size="15" text-anchor="middle" letter-spacing="1">INSTALL</text>
    <rect x="1296" y="404" width="130" height="44" fill="none" stroke="#111827" stroke-width="2"/>
    <text x="1361" y="432" fill="#111827" font-size="14" text-anchor="middle" letter-spacing="1">DOWNLOAD</text>

    <!-- row 4 -->
    <rect x="140" y="484" width="1320" height="76" fill="#ffffff" stroke="#111827" stroke-opacity="0.28" stroke-width="2"/>
    <text x="172" y="520" fill="#111827" font-size="21">timescaledb-install.sh</text>
    <text x="172" y="546" fill="#8b8f98" font-size="15">shell · community · 410 installs</text>
    <rect x="1156" y="500" width="120" height="44" fill="#111827"/>
    <text x="1216" y="528" fill="#ffffff" font-size="15" text-anchor="middle" letter-spacing="1">INSTALL</text>
    <rect x="1296" y="500" width="130" height="44" fill="none" stroke="#111827" stroke-width="2"/>
    <text x="1361" y="528" fill="#111827" font-size="14" text-anchor="middle" letter-spacing="1">DOWNLOAD</text>
  </g>
</svg>
